<?xml version="1.0" encoding="UTF-8" standalone="no"?>
<!DOCTYPE svg PUBLIC "-//W3C//DTD SVG 20010904//EN"
              "http://www.w3.org/TR/2001/REC-SVG-20010904/DTD/svg10.dtd">

<svg xmlns="http://www.w3.org/2000/svg"
     width="25.5102mm" height="7.5mm"
     viewBox="0 0 500 147">
  <path id="Sports"
        fill="none" stroke="black" stroke-width="1"
        d="M 161.48,113.00
           C 157.30,113.00 153.63,112.60 150.47,111.81
             147.31,111.01 144.38,110.02 141.67,108.83
             141.67,108.83 141.67,96.00 141.67,96.00
             141.67,96.00 142.92,96.00 142.92,96.00
             145.65,98.25 148.66,99.98 151.95,101.19
             155.25,102.40 158.46,103.00 161.56,103.00
             162.34,103.00 163.38,102.92 164.66,102.75
             165.94,102.57 166.97,102.30 167.75,101.92
             168.70,101.50 169.50,100.91 170.16,100.16
             170.82,99.40 171.16,98.40 171.16,97.16
             171.16,95.78 170.62,94.66 169.55,93.80
             168.47,92.93 167.19,92.30 165.70,91.91
             163.85,91.42 161.86,90.95 159.75,90.52
             157.63,90.07 155.66,89.52 153.83,88.88
             149.61,87.38 146.58,85.36 144.75,82.83
             142.91,80.29 142.00,77.11 142.00,73.28
             142.00,68.14 144.16,63.97 148.48,60.78
             152.80,57.59 158.20,56.00 164.67,56.00
             167.92,56.00 171.15,56.33 174.36,56.98
             177.57,57.64 180.44,58.53 182.98,59.64
             182.98,59.64 182.98,72.00 182.98,72.00
             182.98,72.00 181.78,72.00 181.78,72.00
             179.75,70.32 177.27,68.91 174.36,67.75
             171.44,66.59 168.45,66.00 165.38,66.00
             164.18,66.00 163.10,66.09 162.14,66.27
             161.19,66.43 160.20,66.77 159.16,67.27
             158.30,67.65 157.56,68.23 156.94,69.02
             156.31,69.80 156.00,70.67 156.00,71.62
             156.00,73.03 156.49,74.15 157.48,74.97
             158.47,75.79 160.38,76.54 163.22,77.20
             165.04,77.62 166.80,78.03 168.50,78.42
             170.20,78.82 172.01,79.36 173.94,80.05
             177.72,81.43 180.53,83.29 182.38,85.61
             184.22,87.93 185.14,91.01 185.14,94.83
             185.14,100.30 183.01,104.70 178.75,108.02
             174.49,111.34 168.73,113.00 161.48,113.00 Z
           M 232.23,91.09
           C 232.23,97.66 230.57,102.95 227.23,106.97
             223.90,110.99 219.79,113.00 214.91,113.00
             212.85,113.00 211.07,112.77 209.55,112.30
             208.04,111.84 206.43,111.12 204.72,110.14
             204.72,110.14 204.72,127.00 204.72,127.00
             204.72,127.00 191.91,127.00 191.91,127.00
             191.91,127.00 191.91,71.00 191.91,71.00
             191.91,71.00 204.72,71.00 204.72,71.00
             204.72,71.00 204.72,75.41 204.72,75.41
             206.60,73.80 208.52,72.50 210.47,71.50
             212.43,70.50 214.69,70.00 217.25,70.00
             222.01,70.00 225.70,71.89 228.31,75.67
             230.93,79.45 232.23,84.59 232.23,91.09 Z
           M 219.11,91.09
           C 219.11,87.21 218.49,84.39 217.25,82.64
             216.02,80.88 214.10,80.00 211.50,80.00
             210.34,80.00 209.20,80.18 208.06,80.53
             206.93,80.89 205.81,81.42 204.72,82.14
             204.72,82.14 204.72,102.22 204.72,102.22
             205.41,102.50 206.16,102.70 206.97,102.83
             207.79,102.95 208.76,103.00 209.88,103.00
             213.00,103.00 215.32,102.01 216.83,100.03
             218.35,98.05 219.11,95.07 219.11,91.09 Z
           M 278.39,91.52
           C 278.39,98.17 276.54,103.42 272.84,107.25
             269.14,111.09 263.91,113.00 257.14,113.00
             250.43,113.00 245.21,111.09 241.48,107.25
             237.77,103.42 235.91,98.17 235.91,91.52
             235.91,84.79 237.77,79.52 241.48,75.72
             245.21,71.91 250.43,70.00 257.14,70.00
             263.88,70.00 269.10,71.92 272.81,75.75
             276.53,79.59 278.39,84.84 278.39,91.52 Z
           M 265.23,91.59
           C 265.23,89.18 265.03,87.17 264.62,85.56
             264.23,83.96 263.68,82.68 262.97,81.72
             262.21,80.70 261.35,79.99 260.39,79.59
             259.44,79.20 258.36,79.00 257.14,79.00
             255.99,79.00 254.96,79.18 254.03,79.53
             253.10,79.88 252.25,80.54 251.47,81.53
             250.73,82.47 250.14,83.76 249.70,85.41
             249.27,87.04 249.05,89.11 249.05,91.59
             249.05,94.07 249.25,96.08 249.67,97.61
             250.09,99.14 250.62,100.37 251.28,101.28
             251.97,102.23 252.82,102.92 253.84,103.36
             254.86,103.79 256.00,104.00 257.25,104.00
             258.27,104.00 259.31,103.79 260.38,103.36
             261.44,102.92 262.29,102.27 262.92,101.39
             263.68,100.36 264.25,99.12 264.64,97.66
             265.04,96.20 265.23,94.18 265.23,91.59 Z
           M 312.52,83.00
           C 312.52,83.00 311.45,83.00 311.45,83.00
             310.96,82.67 310.25,82.42 309.33,82.25
             308.40,82.09 307.38,82.00 306.25,82.00
             304.91,82.00 303.49,82.20 302.02,82.59
             300.55,82.99 299.11,83.46 297.72,84.02
             297.72,84.02 297.72,112.00 297.72,112.00
             297.72,112.00 284.91,112.00 284.91,112.00
             284.91,112.00 284.91,71.00 284.91,71.00
             284.91,71.00 297.72,71.00 297.72,71.00
             297.72,71.00 297.72,77.00 297.72,77.00
             298.30,76.47 299.11,75.80 300.16,74.98
             301.20,74.17 302.14,73.52 303.00,73.03
             303.93,72.48 305.00,72.01 306.23,71.61
             307.46,71.20 308.63,71.00 309.73,71.00
             310.15,71.00 310.61,71.02 311.12,71.05
             311.63,71.07 312.10,71.10 312.52,71.14
             312.52,71.14 312.52,83.00 312.52,83.00 Z
           M 333.66,113.00
           C 328.43,113.00 324.62,111.93 322.23,109.78
             319.86,107.62 318.67,104.11 318.67,99.23
             318.67,99.23 318.67,80.00 318.67,80.00
             318.67,80.00 313.77,80.00 313.77,80.00
             313.77,80.00 313.77,71.00 313.77,71.00
             313.77,71.00 318.67,71.00 318.67,71.00
             318.67,71.00 318.67,59.00 318.67,59.00
             318.67,59.00 331.50,59.00 331.50,59.00
             331.50,59.00 331.50,71.00 331.50,71.00
             331.50,71.00 343.83,71.00 343.83,71.00
             343.83,71.00 343.83,80.00 343.83,80.00
             343.83,80.00 331.50,80.00 331.50,80.00
             331.50,80.00 331.50,94.56 331.50,94.56
             331.50,96.00 331.51,97.26 331.53,98.33
             331.56,99.40 331.76,100.37 332.12,101.22
             332.47,102.07 333.07,102.75 333.94,103.25
             334.80,103.75 336.06,104.00 337.72,104.00
             338.41,104.00 339.30,103.89 340.41,103.66
             341.52,103.42 342.30,103.20 342.73,103.00
             342.73,103.00 343.83,103.00 343.83,103.00
             343.83,103.00 343.83,111.86 343.83,111.86
             342.43,112.21 340.95,112.49 339.39,112.69
             337.83,112.89 335.91,113.00 333.66,113.00 Z
           M 361.42,113.00
           C 358.40,113.00 355.54,112.67 352.84,112.02
             350.14,111.37 347.91,110.61 346.16,109.73
             346.16,109.73 346.16,99.00 346.16,99.00
             346.16,99.00 347.22,99.00 347.22,99.00
             347.83,99.44 348.53,99.92 349.31,100.44
             350.09,100.96 351.18,101.51 352.56,102.08
             353.76,102.61 355.11,103.06 356.61,103.44
             358.12,103.81 359.75,104.00 361.52,104.00
             363.32,104.00 364.91,103.75 366.28,103.23
             367.66,102.73 368.36,101.92 368.36,100.81
             368.36,99.87 368.04,99.15 367.41,98.67
             366.77,98.20 365.54,97.73 363.70,97.30
             362.72,97.06 361.49,96.80 360.00,96.52
             358.51,96.23 357.19,95.91 356.05,95.55
             352.83,94.56 350.41,93.09 348.78,91.14
             347.16,89.20 346.34,86.64 346.34,83.47
             346.34,81.66 346.77,79.95 347.61,78.34
             348.45,76.73 349.69,75.29 351.33,74.03
             352.96,72.79 354.98,71.81 357.38,71.09
             359.78,70.37 362.50,70.00 365.53,70.00
             368.41,70.00 371.07,70.28 373.48,70.84
             375.90,71.40 377.94,72.07 379.59,72.86
             379.59,72.86 379.59,83.00 379.59,83.00
             379.59,83.00 378.56,83.00 378.56,83.00
             378.12,82.70 377.43,82.30 376.47,81.80
             375.52,81.29 374.60,80.85 373.70,80.48
             372.62,80.06 371.41,79.70 370.08,79.42
             368.75,79.14 367.39,79.00 366.00,79.00
             364.14,79.00 362.58,79.29 361.30,79.88
             360.02,80.45 359.38,81.21 359.38,82.16
             359.38,83.07 359.69,83.80 360.33,84.33
             360.96,84.86 362.34,85.38 364.47,85.89
             365.56,86.16 366.82,86.43 368.25,86.69
             369.69,86.94 371.06,87.28 372.38,87.70
             375.33,88.65 377.57,90.04 379.09,91.88
             380.62,93.70 381.39,96.12 381.39,99.14
             381.39,101.05 380.94,102.87 380.03,104.59
             379.13,106.32 377.85,107.78 376.19,108.97
             374.43,110.25 372.35,111.25 369.97,111.95
             367.59,112.65 364.74,113.00 361.42,113.00 Z" />
  <path id="DB"
        fill="none" stroke="black" stroke-width="1"
        d="M 434.14,84.05
           C 434.14,88.89 433.02,93.23 430.80,97.06
             428.58,100.90 425.77,103.84 422.36,105.88
             419.80,107.42 417.00,108.49 413.95,109.09
             410.91,109.70 407.30,110.00 403.14,110.00
             403.14,110.00 384.69,110.00 384.69,110.00
             384.69,110.00 384.69,58.00 384.69,58.00
             384.69,58.00 403.67,58.00 403.67,58.00
             407.93,58.00 411.61,58.36 414.70,59.06
             417.80,59.77 420.39,60.78 422.50,62.08
             426.11,64.28 428.96,67.23 431.03,70.95
             433.10,74.66 434.14,79.03 434.14,84.05 Z
           M 420.19,83.97
           C 420.19,80.61 419.55,77.73 418.30,75.34
             417.05,72.95 415.06,71.07 412.34,69.72
             410.97,69.05 409.55,68.60 408.11,68.36
             406.67,68.12 404.50,68.00 401.59,68.00
             401.59,68.00 398.19,68.00 398.19,68.00
             398.19,68.00 398.19,100.00 398.19,100.00
             398.19,100.00 401.59,100.00 401.59,100.00
             404.80,100.00 407.16,99.86 408.66,99.58
             410.16,99.29 411.62,98.77 413.05,98.02
             415.52,96.64 417.32,94.80 418.47,92.50
             419.61,90.20 420.19,87.36 420.19,83.97 Z
           M 485.47,94.34
           C 485.47,96.81 484.96,99.02 483.94,100.97
             482.91,102.92 481.52,104.53 479.73,105.81
             477.67,107.32 475.41,108.40 472.94,109.05
             470.47,109.68 467.33,110.00 463.53,110.00
             463.53,110.00 440.69,110.00 440.69,110.00
             440.69,110.00 440.69,58.00 440.69,58.00
             440.69,58.00 461.00,58.00 461.00,58.00
             465.22,58.00 468.30,58.15 470.27,58.44
             472.22,58.72 474.16,59.34 476.08,60.31
             478.07,61.34 479.55,62.71 480.52,64.44
             481.49,66.16 481.98,68.12 481.98,70.33
             481.98,72.90 481.32,75.17 479.98,77.12
             478.65,79.09 476.77,80.61 474.33,81.70
             474.33,81.70 474.33,81.98 474.33,81.98
             477.74,82.65 480.45,84.03 482.45,86.11
             484.46,88.20 485.47,90.94 485.47,94.34 Z
           M 468.17,73.17
           C 468.17,72.31 467.95,71.45 467.52,70.59
             467.09,69.73 466.32,69.09 465.22,68.66
             464.24,68.29 463.02,68.09 461.55,68.06
             460.08,68.02 458.02,68.00 455.38,68.00
             455.38,68.00 454.11,68.00 454.11,68.00
             454.11,68.00 454.11,79.00 454.11,79.00
             454.11,79.00 456.22,79.00 456.22,79.00
             458.35,79.00 460.17,78.97 461.67,78.91
             463.17,78.84 464.35,78.60 465.22,78.20
             466.44,77.66 467.23,76.97 467.61,76.12
             467.98,75.27 468.17,74.29 468.17,73.17 Z
           M 471.48,93.89
           C 471.48,92.36 471.16,91.18 470.52,90.34
             469.87,89.51 468.77,88.89 467.23,88.48
             466.17,88.20 464.71,88.05 462.86,88.03
             461.02,88.01 459.08,88.00 457.06,88.00
             457.06,88.00 454.11,88.00 454.11,88.00
             454.11,88.00 454.11,100.00 454.11,100.00
             454.11,100.00 455.09,100.00 455.09,100.00
             458.89,100.00 461.61,99.99 463.25,99.97
             464.89,99.95 466.41,99.67 467.80,99.12
             469.20,98.59 470.16,97.87 470.69,96.98
             471.22,96.09 471.48,95.06 471.48,93.89 Z" />
  <path id="The"
        fill="none" stroke="black" stroke-width="1"
        d="M 199.95,66.00
           C 199.95,66.00 199.95,44.00 199.95,44.00
             199.95,44.00 192.00,44.00 192.00,44.00
             192.00,44.00 192.00,39.00 192.00,39.00
             192.00,39.00 214.66,39.00 214.66,39.00
             214.66,39.00 214.66,44.00 214.66,44.00
             214.66,44.00 206.70,44.00 206.70,44.00
             206.70,44.00 206.70,66.00 206.70,66.00
             206.70,66.00 199.95,66.00 199.95,66.00 Z
           M 236.42,66.00
           C 236.42,66.00 230.06,66.00 230.06,66.00
             230.06,66.00 230.06,56.31 230.06,56.31
             230.06,55.53 230.02,54.75 229.95,53.97
             229.89,53.19 229.77,52.61 229.59,52.23
             229.38,51.80 229.06,51.48 228.66,51.30
             228.25,51.10 227.70,51.00 227.02,51.00
             226.49,51.00 225.97,51.09 225.44,51.28
             224.91,51.47 224.35,51.77 223.75,52.17
             223.75,52.17 223.75,66.00 223.75,66.00
             223.75,66.00 217.42,66.00 217.42,66.00
             217.42,66.00 217.42,38.00 217.42,38.00
             217.42,38.00 223.75,38.00 223.75,38.00
             223.75,38.00 223.75,48.69 223.75,48.69
             224.78,47.84 225.79,47.19 226.77,46.72
             227.75,46.24 228.84,46.00 230.03,46.00
             232.10,46.00 233.69,46.63 234.78,47.89
             235.88,49.14 236.42,50.95 236.42,53.33
             236.42,53.33 236.42,66.00 236.42,66.00 Z
           M 251.81,66.00
           C 247.98,66.00 245.04,65.15 243.00,63.44
             240.96,61.73 239.94,59.30 239.94,56.16
             239.94,53.06 240.88,50.60 242.78,48.77
             244.69,46.92 247.35,46.00 250.78,46.00
             253.88,46.00 256.22,46.77 257.78,48.31
             259.35,49.84 260.14,52.04 260.14,54.91
             260.14,54.91 260.14,57.00 260.14,57.00
             260.14,57.00 246.28,57.00 246.28,57.00
             246.34,57.76 246.54,58.40 246.88,58.92
             247.22,59.43 247.66,59.84 248.22,60.14
             248.76,60.45 249.39,60.68 250.11,60.81
             250.84,60.94 251.63,61.00 252.48,61.00
             253.21,61.00 253.93,60.93 254.64,60.80
             255.36,60.65 256.01,60.46 256.59,60.23
             257.11,60.05 257.59,59.84 258.03,59.61
             258.48,59.38 258.84,59.18 259.11,59.00
             259.11,59.00 259.78,59.00 259.78,59.00
             259.78,59.00 259.78,64.30 259.78,64.30
             259.26,64.51 258.79,64.70 258.36,64.88
             257.93,65.05 257.34,65.23 256.59,65.41
             255.91,65.59 255.20,65.74 254.47,65.84
             253.75,65.95 252.86,66.00 251.81,66.00 Z
           M 253.91,53.00
           C 253.88,52.02 253.56,51.28 252.97,50.77
             252.38,50.26 251.49,50.00 250.30,50.00
             249.07,50.00 248.10,50.27 247.41,50.81
             246.72,51.34 246.34,52.07 246.27,53.00
             246.27,53.00 253.91,53.00 253.91,53.00 Z" />
  <path id="Tagline"
        fill="none" stroke="black" stroke-width="1"
        d="M 217.80,124.34
           C 217.80,125.43 217.31,126.31 216.34,126.98
             215.38,127.66 214.05,128.00 212.39,128.00
             211.42,128.00 210.58,127.93 209.86,127.80
             209.15,127.66 208.48,127.48 207.86,127.27
             207.86,127.27 207.86,125.00 207.86,125.00
             207.86,125.00 208.19,125.00 208.19,125.00
             208.81,125.65 209.50,126.14 210.27,126.48
             211.04,126.83 211.77,127.00 212.48,127.00
             212.67,127.00 212.91,126.97 213.20,126.91
             213.50,126.84 213.75,126.73 213.94,126.58
             214.16,126.39 214.35,126.15 214.50,125.86
             214.64,125.57 214.72,125.14 214.72,124.56
             214.72,124.30 214.61,124.08 214.39,123.89
             214.17,123.70 213.85,123.56 213.44,123.47
             213.00,123.37 212.54,123.27 212.05,123.17
             211.57,123.08 211.11,122.96 210.69,122.81
             209.71,122.50 209.00,122.07 208.56,121.52
             208.13,120.96 207.92,120.28 207.92,119.47
             207.92,118.45 208.41,117.62 209.38,116.97
             210.35,116.32 211.60,116.00 213.12,116.00
             213.89,116.00 214.65,116.07 215.39,116.20
             216.14,116.33 216.79,116.48 217.34,116.67
             217.34,116.67 217.34,119.00 217.34,119.00
             217.34,119.00 217.03,119.00 217.03,119.00
             216.56,118.43 215.98,117.95 215.30,117.58
             214.62,117.20 213.93,117.00 213.22,117.00
             212.97,117.00 212.72,117.04 212.47,117.11
             212.23,117.18 211.99,117.31 211.77,117.50
             211.55,117.67 211.38,117.92 211.23,118.25
             211.09,118.59 211.02,118.96 211.02,119.39
             211.02,119.70 211.13,119.95 211.36,120.11
             211.60,120.28 212.04,120.43 212.69,120.56
             213.11,120.65 213.52,120.73 213.92,120.81
             214.32,120.90 214.74,121.02 215.19,121.17
             216.08,121.46 216.74,121.87 217.16,122.38
             217.58,122.88 217.80,123.53 217.80,124.34 Z
           M 222.14,128.00
           C 222.14,128.00 219.33,128.00 219.33,128.00
             219.33,128.00 219.33,119.00 219.33,119.00
             219.33,119.00 222.14,119.00 222.14,119.00
             222.14,119.00 222.14,128.00 222.14,128.00 Z
           M 222.22,117.00
           C 222.22,117.00 219.25,117.00 219.25,117.00
             219.25,117.00 219.25,115.00 219.25,115.00
             219.25,115.00 222.22,115.00 222.22,115.00
             222.22,115.00 222.22,117.00 222.22,117.00 Z
           M 232.91,120.62
           C 232.91,120.62 232.91,128.00 232.91,128.00
             232.91,128.00 230.08,128.00 230.08,128.00
             230.08,128.00 230.08,122.80 230.08,122.80
             230.08,122.30 230.07,121.87 230.05,121.52
             230.02,121.15 229.97,120.86 229.88,120.64
             229.78,120.42 229.64,120.26 229.45,120.16
             229.27,120.05 229.00,120.00 228.66,120.00
             228.38,120.00 228.10,120.07 227.84,120.20
             227.58,120.34 227.35,120.48 227.14,120.62
             227.14,120.62 227.14,128.00 227.14,128.00
             227.14,128.00 224.33,128.00 224.33,128.00
             224.33,128.00 224.33,119.00 224.33,119.00
             224.33,119.00 227.14,119.00 227.14,119.00
             227.14,119.00 227.14,120.20 227.14,120.20
             227.63,119.83 228.09,119.54 228.53,119.33
             228.98,119.11 229.47,119.00 230.00,119.00
             230.58,119.00 231.09,119.13 231.53,119.39
             231.98,119.64 232.33,120.02 232.58,120.52
             233.14,120.05 233.69,119.68 234.22,119.41
             234.75,119.14 235.27,119.00 235.78,119.00
             236.73,119.00 237.45,119.29 237.94,119.86
             238.43,120.42 238.67,121.23 238.67,122.30
             238.67,122.30 238.67,128.00 238.67,128.00
             238.67,128.00 235.84,128.00 235.84,128.00
             235.84,128.00 235.84,122.80 235.84,122.80
             235.84,122.29 235.83,121.86 235.81,121.50
             235.80,121.15 235.75,120.86 235.66,120.64
             235.56,120.42 235.41,120.26 235.22,120.16
             235.03,120.05 234.77,120.00 234.42,120.00
             234.18,120.00 233.95,120.05 233.72,120.14
             233.50,120.23 233.23,120.40 232.91,120.62 Z
           M 250.48,123.42
           C 250.48,124.13 250.38,124.78 250.16,125.36
             249.94,125.93 249.64,126.41 249.28,126.80
             248.91,127.20 248.48,127.50 248.00,127.70
             247.53,127.90 247.02,128.00 246.48,128.00
             245.98,128.00 245.55,127.95 245.20,127.84
             244.86,127.73 244.50,127.58 244.14,127.39
             244.14,127.39 244.14,131.00 244.14,131.00
             244.14,131.00 241.33,131.00 241.33,131.00
             241.33,131.00 241.33,119.00 241.33,119.00
             241.33,119.00 244.14,119.00 244.14,119.00
             244.14,119.00 244.14,119.92 244.14,119.92
             244.58,119.58 245.02,119.34 245.47,119.20
             245.91,119.07 246.44,119.00 247.03,119.00
             248.12,119.00 248.97,119.40 249.58,120.19
             250.18,120.97 250.48,122.05 250.48,123.42 Z
           M 247.59,123.38
           C 247.59,122.19 247.45,121.33 247.16,120.80
             246.86,120.27 246.40,120.00 245.77,120.00
             245.50,120.00 245.23,120.06 244.95,120.17
             244.67,120.28 244.40,120.44 244.14,120.66
             244.14,120.66 244.14,126.77 244.14,126.77
             244.33,126.86 244.52,126.92 244.73,126.95
             244.95,126.98 245.16,127.00 245.38,127.00
             246.12,127.00 246.68,126.70 247.05,126.09
             247.41,125.49 247.59,124.59 247.59,123.38 Z
           M 255.14,128.00
           C 255.14,128.00 252.33,128.00 252.33,128.00
             252.33,128.00 252.33,115.00 252.33,115.00
             252.33,115.00 255.14,115.00 255.14,115.00
             255.14,115.00 255.14,128.00 255.14,128.00 Z
           M 265.97,123.00
           C 265.97,123.00 259.53,123.00 259.53,123.00
             259.57,124.29 259.83,125.28 260.31,125.97
             260.80,126.66 261.52,127.00 262.45,127.00
             263.05,127.00 263.62,126.86 264.17,126.56
             264.73,126.27 265.18,125.96 265.50,125.62
             265.50,125.62 265.81,125.62 265.81,125.62
             265.81,125.62 265.81,127.42 265.81,127.42
             265.18,127.62 264.58,127.77 264.02,127.86
             263.45,127.95 262.83,128.00 262.14,128.00
             260.38,128.00 259.03,127.62 258.09,126.86
             257.16,126.09 256.69,124.99 256.69,123.56
             256.69,122.17 257.13,121.06 258.02,120.23
             258.91,119.41 260.13,119.00 261.67,119.00
             263.10,119.00 264.17,119.28 264.89,119.84
             265.61,120.40 265.97,121.20 265.97,122.23
             265.97,122.23 265.97,123.00 265.97,123.00 Z
           M 263.17,122.00
           C 263.16,121.34 263.02,120.84 262.73,120.50
             262.46,120.17 262.04,120.00 261.45,120.00
             260.91,120.00 260.46,120.16 260.11,120.48
             259.77,120.80 259.57,121.30 259.53,122.00
             259.53,122.00 263.17,122.00 263.17,122.00 Z
           M 282.80,124.34
           C 282.80,125.43 282.31,126.31 281.34,126.98
             280.38,127.66 279.05,128.00 277.39,128.00
             276.42,128.00 275.58,127.93 274.86,127.80
             274.15,127.66 273.48,127.48 272.86,127.27
             272.86,127.27 272.86,125.00 272.86,125.00
             272.86,125.00 273.19,125.00 273.19,125.00
             273.81,125.65 274.50,126.14 275.27,126.48
             276.04,126.83 276.77,127.00 277.48,127.00
             277.67,127.00 277.91,126.97 278.20,126.91
             278.50,126.84 278.75,126.73 278.94,126.58
             279.16,126.39 279.35,126.15 279.50,125.86
             279.64,125.57 279.72,125.14 279.72,124.56
             279.72,124.30 279.61,124.08 279.39,123.89
             279.17,123.70 278.85,123.56 278.44,123.47
             278.00,123.37 277.54,123.27 277.05,123.17
             276.57,123.08 276.11,122.96 275.69,122.81
             274.71,122.50 274.00,122.07 273.56,121.52
             273.13,120.96 272.92,120.28 272.92,119.47
             272.92,118.45 273.41,117.62 274.38,116.97
             275.35,116.32 276.60,116.00 278.12,116.00
             278.89,116.00 279.65,116.07 280.39,116.20
             281.14,116.33 281.79,116.48 282.34,116.67
             282.34,116.67 282.34,119.00 282.34,119.00
             282.34,119.00 282.03,119.00 282.03,119.00
             281.56,118.43 280.98,117.95 280.30,117.58
             279.62,117.20 278.93,117.00 278.22,117.00
             277.97,117.00 277.72,117.04 277.47,117.11
             277.23,117.18 276.99,117.31 276.77,117.50
             276.55,117.67 276.38,117.92 276.23,118.25
             276.09,118.59 276.02,118.96 276.02,119.39
             276.02,119.70 276.13,119.95 276.36,120.11
             276.60,120.28 277.04,120.43 277.69,120.56
             278.11,120.65 278.52,120.73 278.92,120.81
             279.32,120.90 279.74,121.02 280.19,121.17
             281.08,121.46 281.74,121.87 282.16,122.38
             282.58,122.88 282.80,123.53 282.80,124.34 Z
           M 293.48,123.42
           C 293.48,124.13 293.38,124.78 293.16,125.36
             292.94,125.93 292.64,126.41 292.28,126.80
             291.91,127.20 291.48,127.50 291.00,127.70
             290.53,127.90 290.02,128.00 289.48,128.00
             288.98,128.00 288.55,127.95 288.20,127.84
             287.86,127.73 287.50,127.58 287.14,127.39
             287.14,127.39 287.14,131.00 287.14,131.00
             287.14,131.00 284.33,131.00 284.33,131.00
             284.33,131.00 284.33,119.00 284.33,119.00
             284.33,119.00 287.14,119.00 287.14,119.00
             287.14,119.00 287.14,119.92 287.14,119.92
             287.58,119.58 288.02,119.34 288.47,119.20
             288.91,119.07 289.44,119.00 290.03,119.00
             291.12,119.00 291.97,119.40 292.58,120.19
             293.18,120.97 293.48,122.05 293.48,123.42 Z
           M 290.59,123.38
           C 290.59,122.19 290.45,121.33 290.16,120.80
             289.86,120.27 289.40,120.00 288.77,120.00
             288.50,120.00 288.23,120.06 287.95,120.17
             287.67,120.28 287.40,120.44 287.14,120.66
             287.14,120.66 287.14,126.77 287.14,126.77
             287.33,126.86 287.52,126.92 287.73,126.95
             287.95,126.98 288.16,127.00 288.38,127.00
             289.12,127.00 289.68,126.70 290.05,126.09
             290.41,125.49 290.59,124.59 290.59,123.38 Z
           M 304.30,123.50
           C 304.30,124.90 303.88,126.00 303.03,126.80
             302.20,127.60 301.02,128.00 299.50,128.00
             297.98,128.00 296.80,127.60 295.95,126.80
             295.11,126.00 294.69,124.90 294.69,123.50
             294.69,122.11 295.11,121.01 295.95,120.20
             296.80,119.40 297.99,119.00 299.50,119.00
             301.03,119.00 302.21,119.40 303.05,120.20
             303.88,121.01 304.30,122.11 304.30,123.50 Z
           M 300.84,126.27
           C 301.03,125.98 301.16,125.62 301.25,125.22
             301.34,124.81 301.39,124.25 301.39,123.53
             301.39,122.86 301.34,122.29 301.25,121.84
             301.16,121.40 301.02,121.04 300.86,120.77
             300.69,120.48 300.49,120.29 300.25,120.17
             300.02,120.06 299.77,120.00 299.50,120.00
             299.23,120.00 298.99,120.05 298.78,120.14
             298.57,120.23 298.37,120.42 298.17,120.70
             298.00,120.98 297.87,121.34 297.77,121.80
             297.66,122.26 297.61,122.84 297.61,123.53
             297.61,124.15 297.65,124.68 297.73,125.14
             297.83,125.60 297.96,125.96 298.14,126.23
             298.30,126.51 298.50,126.70 298.73,126.83
             298.96,126.95 299.23,127.00 299.53,127.00
             299.78,127.00 300.02,126.95 300.25,126.84
             300.49,126.73 300.69,126.54 300.84,126.27 Z
           M 312.69,121.00
           C 312.69,121.00 312.44,121.00 312.44,121.00
             312.32,121.00 312.13,121.00 311.86,121.00
             311.60,121.00 311.38,121.00 311.20,121.00
             310.80,121.00 310.44,121.03 310.12,121.09
             309.82,121.15 309.49,121.25 309.14,121.39
             309.14,121.39 309.14,128.00 309.14,128.00
             309.14,128.00 306.33,128.00 306.33,128.00
             306.33,128.00 306.33,119.00 306.33,119.00
             306.33,119.00 309.14,119.00 309.14,119.00
             309.14,119.00 309.14,120.30 309.14,120.30
             309.77,119.77 310.30,119.42 310.77,119.25
             311.22,119.09 311.64,119.00 312.03,119.00
             312.12,119.00 312.23,119.01 312.36,119.02
             312.48,119.02 312.59,119.02 312.69,119.02
             312.69,119.02 312.69,121.00 312.69,121.00 Z
           M 319.94,127.89
           C 319.63,127.92 319.31,127.95 318.97,127.97
             318.63,127.99 318.22,128.00 317.73,128.00
             316.64,128.00 315.83,127.75 315.30,127.25
             314.77,126.74 314.50,125.88 314.50,124.66
             314.50,124.66 314.50,120.00 314.50,120.00
             314.50,120.00 313.34,120.00 313.34,120.00
             313.34,120.00 313.34,119.00 313.34,119.00
             313.34,119.00 314.50,119.00 314.50,119.00
             314.50,119.00 314.50,117.00 314.50,117.00
             314.50,117.00 317.31,117.00 317.31,117.00
             317.31,117.00 317.31,119.00 317.31,119.00
             317.31,119.00 319.94,119.00 319.94,119.00
             319.94,119.00 319.94,120.00 319.94,120.00
             319.94,120.00 317.31,120.00 317.31,120.00
             317.31,120.00 317.31,124.25 317.31,124.25
             317.31,124.67 317.31,125.03 317.31,125.34
             317.32,125.66 317.36,125.94 317.44,126.19
             317.51,126.44 317.64,126.64 317.83,126.78
             318.02,126.93 318.29,127.00 318.64,127.00
             318.79,127.00 318.97,127.00 319.20,127.00
             319.44,127.00 319.61,127.00 319.70,127.00
             319.70,127.00 319.94,127.00 319.94,127.00
             319.94,127.00 319.94,127.89 319.94,127.89 Z
           M 328.95,125.06
           C 328.95,125.95 328.55,126.66 327.73,127.20
             326.92,127.73 325.81,128.00 324.41,128.00
             323.62,128.00 322.91,127.95 322.28,127.86
             321.64,127.76 321.13,127.65 320.75,127.53
             320.75,127.53 320.75,126.00 320.75,126.00
             320.75,126.00 321.00,126.00 321.00,126.00
             321.14,126.09 321.30,126.18 321.48,126.28
             321.67,126.39 321.94,126.50 322.28,126.61
             322.57,126.73 322.90,126.82 323.27,126.89
             323.64,126.96 324.04,127.00 324.45,127.00
             325.00,127.00 325.41,126.87 325.67,126.61
             325.94,126.35 326.08,125.97 326.08,125.47
             326.08,125.26 326.00,125.11 325.84,125.02
             325.69,124.92 325.39,124.84 324.95,124.75
             324.74,124.70 324.46,124.65 324.11,124.59
             323.75,124.54 323.43,124.48 323.14,124.41
             322.34,124.20 321.74,123.88 321.36,123.45
             320.97,123.03 320.78,122.50 320.78,121.86
             320.78,121.04 321.18,120.36 321.98,119.81
             322.79,119.27 323.88,119.00 325.27,119.00
             325.92,119.00 326.55,119.05 327.14,119.14
             327.74,119.23 328.22,119.34 328.56,119.44
             328.56,119.44 328.56,121.00 328.56,121.00
             328.56,121.00 328.31,121.00 328.31,121.00
             327.89,120.71 327.42,120.47 326.89,120.28
             326.36,120.09 325.82,120.00 325.27,120.00
             324.82,120.00 324.44,120.14 324.12,120.41
             323.81,120.67 323.66,121.04 323.66,121.52
             323.66,121.71 323.72,121.87 323.86,121.98
             324.00,122.09 324.34,122.20 324.86,122.30
             325.15,122.36 325.46,122.42 325.78,122.47
             326.11,122.52 326.45,122.59 326.78,122.67
             327.52,122.86 328.07,123.16 328.42,123.56
             328.77,123.96 328.95,124.46 328.95,125.06 Z
           M 347.23,128.00
           C 347.23,128.00 344.14,128.00 344.14,128.00
             344.14,128.00 343.33,125.00 343.33,125.00
             343.33,125.00 339.02,125.00 339.02,125.00
             339.02,125.00 338.22,128.00 338.22,128.00
             338.22,128.00 335.19,128.00 335.19,128.00
             335.19,128.00 339.48,115.62 339.48,115.62
             339.48,115.62 342.94,115.62 342.94,115.62
             342.94,115.62 347.23,128.00 347.23,128.00 Z
           M 342.61,124.00
           C 342.61,124.00 341.17,118.80 341.17,118.80
             341.17,118.80 339.75,124.00 339.75,124.00
             339.75,124.00 342.61,124.00 342.61,124.00 Z
           M 354.69,121.00
           C 354.69,121.00 354.44,121.00 354.44,121.00
             354.32,121.00 354.13,121.00 353.86,121.00
             353.60,121.00 353.38,121.00 353.20,121.00
             352.80,121.00 352.44,121.03 352.12,121.09
             351.82,121.15 351.49,121.25 351.14,121.39
             351.14,121.39 351.14,128.00 351.14,128.00
             351.14,128.00 348.33,128.00 348.33,128.00
             348.33,128.00 348.33,119.00 348.33,119.00
             348.33,119.00 351.14,119.00 351.14,119.00
             351.14,119.00 351.14,120.30 351.14,120.30
             351.77,119.77 352.30,119.42 352.77,119.25
             353.22,119.09 353.64,119.00 354.03,119.00
             354.12,119.00 354.23,119.01 354.36,119.02
             354.48,119.02 354.59,119.02 354.69,119.02
             354.69,119.02 354.69,121.00 354.69,121.00 Z
           M 361.94,127.89
           C 361.63,127.92 361.31,127.95 360.97,127.97
             360.63,127.99 360.22,128.00 359.73,128.00
             358.64,128.00 357.83,127.75 357.30,127.25
             356.77,126.74 356.50,125.88 356.50,124.66
             356.50,124.66 356.50,120.00 356.50,120.00
             356.50,120.00 355.34,120.00 355.34,120.00
             355.34,120.00 355.34,119.00 355.34,119.00
             355.34,119.00 356.50,119.00 356.50,119.00
             356.50,119.00 356.50,117.00 356.50,117.00
             356.50,117.00 359.31,117.00 359.31,117.00
             359.31,117.00 359.31,119.00 359.31,119.00
             359.31,119.00 361.94,119.00 361.94,119.00
             361.94,119.00 361.94,120.00 361.94,120.00
             361.94,120.00 359.31,120.00 359.31,120.00
             359.31,120.00 359.31,124.25 359.31,124.25
             359.31,124.67 359.31,125.03 359.31,125.34
             359.32,125.66 359.36,125.94 359.44,126.19
             359.51,126.44 359.64,126.64 359.83,126.78
             360.02,126.93 360.29,127.00 360.64,127.00
             360.79,127.00 360.97,127.00 361.20,127.00
             361.44,127.00 361.61,127.00 361.70,127.00
             361.70,127.00 361.94,127.00 361.94,127.00
             361.94,127.00 361.94,127.89 361.94,127.89 Z
           M 373.64,125.98
           C 373.64,125.98 373.64,123.00 373.64,123.00
             373.27,123.05 372.85,123.12 372.41,123.22
             371.97,123.30 371.63,123.40 371.41,123.52
             371.12,123.66 370.91,123.88 370.75,124.16
             370.60,124.43 370.53,124.79 370.53,125.23
             370.53,125.54 370.55,125.78 370.58,125.97
             370.61,126.16 370.69,126.34 370.81,126.50
             370.94,126.68 371.08,126.81 371.25,126.89
             371.41,126.96 371.68,127.00 372.03,127.00
             372.31,127.00 372.59,126.91 372.88,126.72
             373.16,126.53 373.42,126.29 373.64,125.98 Z
           M 373.64,127.06
           C 373.49,127.18 373.30,127.32 373.08,127.48
             372.86,127.64 372.65,127.77 372.45,127.86
             372.17,127.95 371.88,128.00 371.58,128.00
             371.29,128.00 370.96,128.00 370.61,128.00
             369.77,128.00 369.08,127.75 368.52,127.23
             367.95,126.71 367.67,126.05 367.67,125.25
             367.67,124.61 367.81,124.08 368.09,123.67
             368.38,123.27 368.80,122.95 369.33,122.72
             369.85,122.48 370.49,122.31 371.27,122.22
             372.04,122.12 372.83,122.04 373.66,122.00
             373.66,122.00 373.66,121.92 373.66,121.92
             373.66,121.20 373.46,120.70 373.06,120.42
             372.66,120.14 372.08,120.00 371.31,120.00
             370.85,120.00 370.36,120.13 369.83,120.39
             369.30,120.65 368.93,120.86 368.70,121.00
             368.70,121.00 368.44,121.00 368.44,121.00
             368.44,121.00 368.44,119.34 368.44,119.34
             368.74,119.28 369.22,119.21 369.89,119.12
             370.55,119.04 371.23,119.00 371.91,119.00
             373.50,119.00 374.65,119.25 375.36,119.73
             376.08,120.23 376.44,121.00 376.44,122.05
             376.44,122.05 376.44,128.00 376.44,128.00
             376.44,128.00 373.64,128.00 373.64,128.00
             373.64,128.00 373.64,127.06 373.64,127.06 Z
           M 388.14,128.00
           C 388.14,128.00 385.31,128.00 385.31,128.00
             385.31,128.00 385.31,122.84 385.31,122.84
             385.31,122.42 385.29,122.00 385.25,121.58
             385.22,121.16 385.16,120.86 385.08,120.66
             384.97,120.43 384.82,120.26 384.61,120.16
             384.41,120.05 384.13,120.00 383.78,120.00
             383.52,120.00 383.26,120.05 383.00,120.16
             382.74,120.25 382.45,120.41 382.14,120.62
             382.14,120.62 382.14,128.00 382.14,128.00
             382.14,128.00 379.33,128.00 379.33,128.00
             379.33,128.00 379.33,119.00 379.33,119.00
             379.33,119.00 382.14,119.00 382.14,119.00
             382.14,119.00 382.14,120.20 382.14,120.20
             382.64,119.82 383.12,119.52 383.58,119.31
             384.05,119.11 384.56,119.00 385.12,119.00
             386.07,119.00 386.81,119.28 387.34,119.83
             387.88,120.38 388.14,121.20 388.14,122.30
             388.14,122.30 388.14,128.00 388.14,128.00 Z
           M 398.86,128.00
           C 398.86,128.00 396.05,128.00 396.05,128.00
             396.05,128.00 396.05,127.08 396.05,127.08
             395.57,127.48 395.11,127.73 394.69,127.84
             394.27,127.95 393.79,128.00 393.23,128.00
             392.16,128.00 391.30,127.60 390.66,126.80
             390.02,126.00 389.70,124.92 389.70,123.56
             389.70,122.84 389.81,122.20 390.03,121.64
             390.25,121.08 390.55,120.60 390.92,120.20
             391.27,119.82 391.70,119.52 392.20,119.31
             392.71,119.11 393.22,119.00 393.72,119.00
             394.25,119.00 394.68,119.06 395.02,119.17
             395.35,119.28 395.69,119.42 396.05,119.59
             396.05,119.59 396.05,115.00 396.05,115.00
             396.05,115.00 398.86,115.00 398.86,115.00
             398.86,115.00 398.86,128.00 398.86,128.00 Z
           M 396.05,126.28
           C 396.05,126.28 396.05,120.33 396.05,120.33
             395.85,120.21 395.64,120.13 395.42,120.08
             395.20,120.03 395.00,120.00 394.83,120.00
             394.09,120.00 393.53,120.32 393.16,120.95
             392.79,121.59 392.61,122.48 392.61,123.61
             392.61,124.80 392.75,125.66 393.05,126.20
             393.35,126.73 393.83,127.00 394.48,127.00
             394.73,127.00 395.00,126.93 395.28,126.80
             395.57,126.66 395.83,126.49 396.05,126.28 Z
           M 418.69,128.00
           C 418.69,128.00 415.70,128.00 415.70,128.00
             415.70,128.00 415.70,119.89 415.70,119.89
             415.70,119.89 413.55,125.00 413.55,125.00
             413.55,125.00 411.47,125.00 411.47,125.00
             411.47,125.00 409.31,119.89 409.31,119.89
             409.31,119.89 409.31,128.00 409.31,128.00
             409.31,128.00 406.48,128.00 406.48,128.00
             406.48,128.00 406.48,116.00 406.48,116.00
             406.48,116.00 409.97,116.00 409.97,116.00
             409.97,116.00 412.59,121.91 412.59,121.91
             412.59,121.91 415.20,116.00 415.20,116.00
             415.20,116.00 418.69,116.00 418.69,116.00
             418.69,116.00 418.69,128.00 418.69,128.00 Z
           M 429.97,123.00
           C 429.97,123.00 423.53,123.00 423.53,123.00
             423.57,124.29 423.83,125.28 424.31,125.97
             424.80,126.66 425.52,127.00 426.45,127.00
             427.05,127.00 427.62,126.86 428.17,126.56
             428.73,126.27 429.18,125.96 429.50,125.62
             429.50,125.62 429.81,125.62 429.81,125.62
             429.81,125.62 429.81,127.42 429.81,127.42
             429.18,127.62 428.58,127.77 428.02,127.86
             427.45,127.95 426.83,128.00 426.14,128.00
             424.38,128.00 423.03,127.62 422.09,126.86
             421.16,126.09 420.69,124.99 420.69,123.56
             420.69,122.17 421.13,121.06 422.02,120.23
             422.91,119.41 424.13,119.00 425.67,119.00
             427.10,119.00 428.17,119.28 428.89,119.84
             429.61,120.40 429.97,121.20 429.97,122.23
             429.97,122.23 429.97,123.00 429.97,123.00 Z
           M 427.17,122.00
           C 427.16,121.34 427.02,120.84 426.73,120.50
             426.46,120.17 426.04,120.00 425.45,120.00
             424.91,120.00 424.46,120.16 424.11,120.48
             423.77,120.80 423.57,121.30 423.53,122.00
             423.53,122.00 427.17,122.00 427.17,122.00 Z
           M 437.94,127.89
           C 437.63,127.92 437.31,127.95 436.97,127.97
             436.63,127.99 436.22,128.00 435.73,128.00
             434.64,128.00 433.83,127.75 433.30,127.25
             432.77,126.74 432.50,125.88 432.50,124.66
             432.50,124.66 432.50,120.00 432.50,120.00
             432.50,120.00 431.34,120.00 431.34,120.00
             431.34,120.00 431.34,119.00 431.34,119.00
             431.34,119.00 432.50,119.00 432.50,119.00
             432.50,119.00 432.50,117.00 432.50,117.00
             432.50,117.00 435.31,117.00 435.31,117.00
             435.31,117.00 435.31,119.00 435.31,119.00
             435.31,119.00 437.94,119.00 437.94,119.00
             437.94,119.00 437.94,120.00 437.94,120.00
             437.94,120.00 435.31,120.00 435.31,120.00
             435.31,120.00 435.31,124.25 435.31,124.25
             435.31,124.67 435.31,125.03 435.31,125.34
             435.32,125.66 435.36,125.94 435.44,126.19
             435.51,126.44 435.64,126.64 435.83,126.78
             436.02,126.93 436.29,127.00 436.64,127.00
             436.79,127.00 436.97,127.00 437.20,127.00
             437.44,127.00 437.61,127.00 437.70,127.00
             437.70,127.00 437.94,127.00 437.94,127.00
             437.94,127.00 437.94,127.89 437.94,127.89 Z
           M 444.64,125.98
           C 444.64,125.98 444.64,123.00 444.64,123.00
             444.27,123.05 443.85,123.12 443.41,123.22
             442.97,123.30 442.63,123.40 442.41,123.52
             442.12,123.66 441.91,123.88 441.75,124.16
             441.60,124.43 441.53,124.79 441.53,125.23
             441.53,125.54 441.55,125.78 441.58,125.97
             441.61,126.16 441.69,126.34 441.81,126.50
             441.94,126.68 442.08,126.81 442.25,126.89
             442.41,126.96 442.68,127.00 443.03,127.00
             443.31,127.00 443.59,126.91 443.88,126.72
             444.16,126.53 444.42,126.29 444.64,125.98 Z
           M 444.64,127.06
           C 444.49,127.18 444.30,127.32 444.08,127.48
             443.86,127.64 443.65,127.77 443.45,127.86
             443.17,127.95 442.88,128.00 442.58,128.00
             442.29,128.00 441.96,128.00 441.61,128.00
             440.77,128.00 440.08,127.75 439.52,127.23
             438.95,126.71 438.67,126.05 438.67,125.25
             438.67,124.61 438.81,124.08 439.09,123.67
             439.38,123.27 439.80,122.95 440.33,122.72
             440.85,122.48 441.49,122.31 442.27,122.22
             443.04,122.12 443.83,122.04 444.66,122.00
             444.66,122.00 444.66,121.92 444.66,121.92
             444.66,121.20 444.46,120.70 444.06,120.42
             443.66,120.14 443.08,120.00 442.31,120.00
             441.85,120.00 441.36,120.13 440.83,120.39
             440.30,120.65 439.93,120.86 439.70,121.00
             439.70,121.00 439.44,121.00 439.44,121.00
             439.44,121.00 439.44,119.34 439.44,119.34
             439.74,119.28 440.22,119.21 440.89,119.12
             441.55,119.04 442.23,119.00 442.91,119.00
             444.50,119.00 445.65,119.25 446.36,119.73
             447.08,120.23 447.44,121.00 447.44,122.05
             447.44,122.05 447.44,128.00 447.44,128.00
             447.44,128.00 444.64,128.00 444.64,128.00
             444.64,128.00 444.64,127.06 444.64,127.06 Z
           M 458.86,128.00
           C 458.86,128.00 456.05,128.00 456.05,128.00
             456.05,128.00 456.05,127.08 456.05,127.08
             455.57,127.48 455.11,127.73 454.69,127.84
             454.27,127.95 453.79,128.00 453.23,128.00
             452.16,128.00 451.30,127.60 450.66,126.80
             450.02,126.00 449.70,124.92 449.70,123.56
             449.70,122.84 449.81,122.20 450.03,121.64
             450.25,121.08 450.55,120.60 450.92,120.20
             451.27,119.82 451.70,119.52 452.20,119.31
             452.71,119.11 453.22,119.00 453.72,119.00
             454.25,119.00 454.68,119.06 455.02,119.17
             455.35,119.28 455.69,119.42 456.05,119.59
             456.05,119.59 456.05,115.00 456.05,115.00
             456.05,115.00 458.86,115.00 458.86,115.00
             458.86,115.00 458.86,128.00 458.86,128.00 Z
           M 456.05,126.28
           C 456.05,126.28 456.05,120.33 456.05,120.33
             455.85,120.21 455.64,120.13 455.42,120.08
             455.20,120.03 455.00,120.00 454.83,120.00
             454.09,120.00 453.53,120.32 453.16,120.95
             452.79,121.59 452.61,122.48 452.61,123.61
             452.61,124.80 452.75,125.66 453.05,126.20
             453.35,126.73 453.83,127.00 454.48,127.00
             454.73,127.00 455.00,126.93 455.28,126.80
             455.57,126.66 455.83,126.49 456.05,126.28 Z
           M 466.64,125.98
           C 466.64,125.98 466.64,123.00 466.64,123.00
             466.27,123.05 465.85,123.12 465.41,123.22
             464.97,123.30 464.63,123.40 464.41,123.52
             464.12,123.66 463.91,123.88 463.75,124.16
             463.60,124.43 463.53,124.79 463.53,125.23
             463.53,125.54 463.55,125.78 463.58,125.97
             463.61,126.16 463.69,126.34 463.81,126.50
             463.94,126.68 464.08,126.81 464.25,126.89
             464.41,126.96 464.68,127.00 465.03,127.00
             465.31,127.00 465.59,126.91 465.88,126.72
             466.16,126.53 466.42,126.29 466.64,125.98 Z
           M 466.64,127.06
           C 466.49,127.18 466.30,127.32 466.08,127.48
             465.86,127.64 465.65,127.77 465.45,127.86
             465.17,127.95 464.88,128.00 464.58,128.00
             464.29,128.00 463.96,128.00 463.61,128.00
             462.77,128.00 462.08,127.75 461.52,127.23
             460.95,126.71 460.67,126.05 460.67,125.25
             460.67,124.61 460.81,124.08 461.09,123.67
             461.38,123.27 461.80,122.95 462.33,122.72
             462.85,122.48 463.49,122.31 464.27,122.22
             465.04,122.12 465.83,122.04 466.66,122.00
             466.66,122.00 466.66,121.92 466.66,121.92
             466.66,121.20 466.46,120.70 466.06,120.42
             465.66,120.14 465.08,120.00 464.31,120.00
             463.85,120.00 463.36,120.13 462.83,120.39
             462.30,120.65 461.93,120.86 461.70,121.00
             461.70,121.00 461.44,121.00 461.44,121.00
             461.44,121.00 461.44,119.34 461.44,119.34
             461.74,119.28 462.22,119.21 462.89,119.12
             463.55,119.04 464.23,119.00 464.91,119.00
             466.50,119.00 467.65,119.25 468.36,119.73
             469.08,120.23 469.44,121.00 469.44,122.05
             469.44,122.05 469.44,128.00 469.44,128.00
             469.44,128.00 466.64,128.00 466.64,128.00
             466.64,128.00 466.64,127.06 466.64,127.06 Z
           M 477.94,127.89
           C 477.63,127.92 477.31,127.95 476.97,127.97
             476.63,127.99 476.22,128.00 475.73,128.00
             474.64,128.00 473.83,127.75 473.30,127.25
             472.77,126.74 472.50,125.88 472.50,124.66
             472.50,124.66 472.50,120.00 472.50,120.00
             472.50,120.00 471.34,120.00 471.34,120.00
             471.34,120.00 471.34,119.00 471.34,119.00
             471.34,119.00 472.50,119.00 472.50,119.00
             472.50,119.00 472.50,117.00 472.50,117.00
             472.50,117.00 475.31,117.00 475.31,117.00
             475.31,117.00 475.31,119.00 475.31,119.00
             475.31,119.00 477.94,119.00 477.94,119.00
             477.94,119.00 477.94,120.00 477.94,120.00
             477.94,120.00 475.31,120.00 475.31,120.00
             475.31,120.00 475.31,124.25 475.31,124.25
             475.31,124.67 475.31,125.03 475.31,125.34
             475.32,125.66 475.36,125.94 475.44,126.19
             475.51,126.44 475.64,126.64 475.83,126.78
             476.02,126.93 476.29,127.00 476.64,127.00
             476.79,127.00 476.97,127.00 477.20,127.00
             477.44,127.00 477.61,127.00 477.70,127.00
             477.70,127.00 477.94,127.00 477.94,127.00
             477.94,127.00 477.94,127.89 477.94,127.89 Z
           M 484.64,125.98
           C 484.64,125.98 484.64,123.00 484.64,123.00
             484.27,123.05 483.85,123.12 483.41,123.22
             482.97,123.30 482.63,123.40 482.41,123.52
             482.12,123.66 481.91,123.88 481.75,124.16
             481.60,124.43 481.53,124.79 481.53,125.23
             481.53,125.54 481.55,125.78 481.58,125.97
             481.61,126.16 481.69,126.34 481.81,126.50
             481.94,126.68 482.08,126.81 482.25,126.89
             482.41,126.96 482.68,127.00 483.03,127.00
             483.31,127.00 483.59,126.91 483.88,126.72
             484.16,126.53 484.42,126.29 484.64,125.98 Z
           M 484.64,127.06
           C 484.49,127.18 484.30,127.32 484.08,127.48
             483.86,127.64 483.65,127.77 483.45,127.86
             483.17,127.95 482.88,128.00 482.58,128.00
             482.29,128.00 481.96,128.00 481.61,128.00
             480.77,128.00 480.08,127.75 479.52,127.23
             478.95,126.71 478.67,126.05 478.67,125.25
             478.67,124.61 478.81,124.08 479.09,123.67
             479.38,123.27 479.80,122.95 480.33,122.72
             480.85,122.48 481.49,122.31 482.27,122.22
             483.04,122.12 483.83,122.04 484.66,122.00
             484.66,122.00 484.66,121.92 484.66,121.92
             484.66,121.20 484.46,120.70 484.06,120.42
             483.66,120.14 483.08,120.00 482.31,120.00
             481.85,120.00 481.36,120.13 480.83,120.39
             480.30,120.65 479.93,120.86 479.70,121.00
             479.70,121.00 479.44,121.00 479.44,121.00
             479.44,121.00 479.44,119.34 479.44,119.34
             479.74,119.28 480.22,119.21 480.89,119.12
             481.55,119.04 482.23,119.00 482.91,119.00
             484.50,119.00 485.65,119.25 486.36,119.73
             487.08,120.23 487.44,121.00 487.44,122.05
             487.44,122.05 487.44,128.00 487.44,128.00
             487.44,128.00 484.64,128.00 484.64,128.00
             484.64,128.00 484.64,127.06 484.64,127.06 Z" />
  <path id="Box 8"
        fill="none" stroke="black" stroke-width="1"
        d="M 71.00,108.00
           C 71.00,108.00 98.00,108.00 98.00,108.00
             98.00,108.00 98.00,117.00 98.00,117.00
             98.00,117.00 71.00,117.00 71.00,117.00
             71.00,117.00 71.00,108.00 71.00,108.00 Z" />
  <path id="Box 7"
        fill="none" stroke="black" stroke-width="1"
        d="M 17.00,108.00
           C 17.00,108.00 60.00,108.00 60.00,108.00
             60.00,108.00 60.00,117.00 60.00,117.00
             60.00,117.00 17.00,117.00 17.00,117.00
             17.00,117.00 17.00,108.00 17.00,108.00 Z" />
  <path id="Box 6"
        fill="none" stroke="black" stroke-width="1"
        d="M 71.00,85.00
           C 71.00,85.00 122.00,85.00 122.00,85.00
             122.00,85.00 122.00,95.00 122.00,95.00
             122.00,95.00 71.00,95.00 71.00,95.00
             71.00,95.00 71.00,85.00 71.00,85.00 Z" />
  <path id="Box 5"
        fill="none" stroke="black" stroke-width="1"
        d="M 29.00,85.00
           C 29.00,85.00 60.00,85.00 60.00,85.00
             60.00,85.00 60.00,95.00 60.00,95.00
             60.00,95.00 29.00,95.00 29.00,95.00
             29.00,95.00 29.00,85.00 29.00,85.00 Z" />
  <path id="Box 4"
        fill="none" stroke="black" stroke-width="1"
        d="M 71.00,60.00
           C 71.00,60.00 107.00,60.00 107.00,60.00
             107.00,60.00 107.00,70.00 107.00,70.00
             107.00,70.00 71.00,70.00 71.00,70.00
             71.00,70.00 71.00,60.00 71.00,60.00 Z" />
  <path id="Box 3"
        fill="none" stroke="black" stroke-width="1"
        d="M 6.00,60.00
           C 6.00,60.00 60.00,60.00 60.00,60.00
             60.00,60.00 60.00,70.00 60.00,70.00
             60.00,70.00 6.00,70.00 6.00,70.00
             6.00,70.00 6.00,60.00 6.00,60.00 Z" />
  <path id="Box 2"
        fill="none" stroke="black" stroke-width="1"
        d="M 71.00,38.00
           C 71.00,38.00 116.00,38.00 116.00,38.00
             116.00,38.00 116.00,47.00 116.00,47.00
             116.00,47.00 71.00,47.00 71.00,47.00
             71.00,47.00 71.00,38.00 71.00,38.00 Z" />
  <path id="Box 1"
        fill="none" stroke="black" stroke-width="1"
        d="M 22.00,38.00
           C 22.00,38.00 60.00,38.00 60.00,38.00
             60.00,38.00 60.00,47.00 60.00,47.00
             60.00,47.00 22.00,47.00 22.00,47.00
             22.00,47.00 22.00,38.00 22.00,38.00 Z" />
</svg>
